HIERARCHY
ROOT Hips
{
	OFFSET 0.000000 0.000000 0.000000
	CHANNELS 6 Xposition Yposition Zposition Zrotation Yrotation Xrotation 
	JOINT LHipJoint
	{
		OFFSET 0.000000 0.000000 0.000000
		CHANNELS 3 Zrotation Yrotation Xrotation
		JOINT LeftUpLeg
		{
			OFFSET 1.363060 -1.794630 0.839290
			CHANNELS 3 Zrotation Yrotation Xrotation
			JOINT LeftLeg
			{
				OFFSET 2.448110 -6.726130 0.000000
				CHANNELS 3 Zrotation Yrotation Xrotation
				JOINT LeftFoot
				{
					OFFSET 2.562200 -7.039590 0.000000
					CHANNELS 3 Zrotation Yrotation Xrotation
					JOINT LeftToeBase
					{
						OFFSET 0.157640 -0.433110 2.322550
						CHANNELS 3 Zrotation Yrotation Xrotation
						End Site
						{
							OFFSET 0.000000 0.000000 0.000000
						}
					}
				}
			}
		}
	}
	JOINT RHipJoint
	{
		OFFSET 0.000000 0.000000 0.000000
		CHANNELS 3 Zrotation Yrotation Xrotation
		JOINT RightUpLeg
		{
			OFFSET -1.305520 -1.794630 0.839290
			CHANNELS 3 Zrotation Yrotation Xrotation
			JOINT RightLeg
			{
				OFFSET -2.542530 -6.985550 0.000000
				CHANNELS 3 Zrotation Yrotation Xrotation
				JOINT RightFoot
				{
					OFFSET -2.568260 -7.056230 0.000000
					CHANNELS 3 Zrotation Yrotation Xrotation
					JOINT RightToeBase
					{
						OFFSET -0.164730 -0.452590 2.363150
						CHANNELS 3 Zrotation Yrotation Xrotation
						End Site
						{
							OFFSET 0.000000 0.000000 0.000000
						}
					}
				}
			}
		}
	}
}
MOTION
Frames: 13
Frame Time: 0.008333
2.754154 17.207458 -0.709618 175.541711 -52.326607 -163.336796 -9.169508 0.130759 1.924792 -10.821949 -13.578817 -28.741176 1.267373 2.007603 53.680454 5.561655 37.454118 8.276530 12.028700 -0.000001 -44.556800 9.140852 -0.566921 4.412723 7.937276 20.848511 -19.416289 1.813223 -0.922521 20.454894 -0.709798 -1.223023 -8.138760 -0.114500 0.000000 -49.658501
2.761800 17.208804 -0.713460 175.153084 -52.050661 -163.000466 -9.099100 0.027978 2.164741 -10.808760 -15.561754 -29.554730 1.376169 2.109666 55.832596 5.377981 36.522933 10.407190 12.839000 -0.000000 -44.827600 9.235341 -0.481470 4.308007 7.559150 20.955300 -19.450775 1.760226 -0.962340 20.743051 -0.708285 -1.187532 -8.238738 -0.104400 -0.000000 -49.863600
2.768321 17.210583 -0.715955 174.759029 -51.790954 -162.659025 -9.031351 -0.079244 2.410741 -10.801269 -17.513384 -30.417465 1.476979 2.210723 57.975904 5.185258 35.414136 12.548049 13.467100 -0.000000 -45.010600 9.332536 -0.399338 4.193335 7.181846 20.972727 -19.493833 1.712802 -0.999559 21.013080 -0.693698 -1.084490 -8.319374 -0.093700 -0.000000 -50.137700
2.773658 17.212796 -0.717450 174.363516 -51.543972 -162.316107 -8.968928 -0.188965 2.654195 -10.801914 -19.376293 -31.343599 1.570503 2.314160 60.123421 4.985881 34.112138 14.585109 13.837400 0.000000 -44.670900 9.431373 -0.322555 4.073505 6.809296 20.903643 -19.546415 1.671394 -1.033591 21.258826 -0.665586 -0.911802 -8.375408 -0.082900 -0.000001 -50.496201
2.777823 17.215595 -0.718257 173.968822 -51.303549 -161.972282 -8.911343 -0.302619 2.890635 -10.815125 -21.119304 -32.330921 1.657853 2.418166 62.251899 4.791030 32.707808 16.547698 14.019300 -0.000000 -44.655100 9.532039 -0.251279 3.952098 6.438132 20.755996 -19.610304 1.635445 -1.064087 21.478843 -0.624560 -0.671652 -8.406692 -0.072200 -0.000000 -50.896499
2.781121 17.218941 -0.718830 173.573640 -51.066773 -161.625996 -8.860385 -0.417328 3.110580 -10.850093 -22.687840 -33.396853 1.742543 2.526835 64.386331 4.602064 31.199243 18.292321 13.955900 0.000000 -44.203100 9.634356 -0.186633 3.836273 6.065433 20.545323 -19.692463 1.603937 -1.090997 21.674796 -0.572521 -0.372347 -8.416633 -0.061800 -0.000000 -51.314100
2.783895 17.222873 -0.719735 173.167233 -50.826522 -161.264552 -8.812588 -0.534607 3.311926 -10.919124 -24.070961 -34.537840 1.826115 2.637168 66.505922 4.430455 29.707909 19.875638 13.762600 0.000001 -44.130500 9.741100 -0.127553 3.729793 5.678149 20.282968 -19.801232 1.574226 -1.114681 21.851793 -0.511020 -0.021571 -8.403485 -0.051700 -0.000000 -51.804999
2.786724 17.227352 -0.721414 172.741524 -50.579145 -160.880026 -8.766611 -0.652987 3.488903 -11.034234 -25.245895 -35.760639 1.912192 2.750485 68.622857 4.278263 28.273355 21.238596 13.457800 0.000000 -44.134300 9.853575 -0.073156 3.638371 5.266089 19.990413 -19.944728 1.544047 -1.135620 22.018293 -0.443312 0.366023 -8.377319 -0.041900 0.000000 -52.304900
2.789966 17.232308 -0.724198 172.291524 -50.321328 -160.464432 -8.720333 -0.771654 3.638085 -11.206580 -26.206599 -37.067770 2.004315 2.866953 70.744915 4.147273 26.942622 22.362913 13.083300 -0.000000 -44.212000 9.973255 -0.022361 3.566341 4.818594 19.687847 -20.130145 1.510719 -1.154434 22.182038 -0.372790 0.772694 -8.341844 -0.032400 0.000000 -52.826301
2.794301 17.237698 -0.728412 171.802307 -50.048721 -160.005241 -8.669040 -0.890763 3.758629 -11.448476 -26.967311 -38.451925 2.103618 2.984879 72.864449 4.040032 25.772404 23.295266 12.708300 0.000000 -44.611500 10.103203 0.027226 3.515241 4.321568 19.390450 -20.361663 1.471268 -1.172055 22.352401 -0.302207 1.184264 -8.302967 -0.023200 0.000000 -53.363200
2.800145 17.243423 -0.734039 171.272943 -49.761313 -159.500719 -8.611077 -1.009333 3.848693 -11.764236 -27.538972 -39.913548 2.213121 3.105186 74.993838 3.953114 24.758914 24.028831 12.341700 0.000000 -45.162001 10.243735 0.077123 3.486900 3.768875 19.117226 -20.640294 1.423845 -1.189063 22.535813 -0.235068 1.581627 -8.268203 -0.014600 -0.000000 -53.882400
2.808032 17.249434 -0.741079 170.695672 -49.458665 -158.946599 -8.543065 -1.127222 3.909002 -12.156930 -27.948350 -41.444061 2.333127 3.227197 77.129368 3.884370 23.903108 24.618177 12.012300 -0.000000 -46.055800 10.396390 0.129399 3.479809 3.154166 18.876836 -20.962399 1.366580 -1.206163 22.735811 -0.173519 1.951388 -8.238504 -0.006700 0.000000 -54.408100
2.818280 17.255703 -0.749362 170.070669 -49.142778 -158.345870 -8.464030 -1.243401 3.939543 -12.623389 -28.218898 -43.038754 2.465383 3.352182 79.278462 3.827386 23.159351 25.077113 11.703500 -0.000000 -47.015999 10.560714 0.185435 3.491877 2.478082 18.678750 -21.318424 1.298761 -1.223686 22.952117 -0.119787 2.279594 -8.216938 0.000200 0.000000 -54.876300
